<svg width="20" height="20" viewBox="0 0 20 20" fill="none" xmlns="http://www.w3.org/2000/svg">
<path d="M11.0602 8.93942L11.4202 9.30392L11.769 9.66767L12.1132 10.0367C14.7067 12.8597 16.2172 15.4502 15.5685 16.0989C15.2685 16.3989 14.5515 16.2369 13.5885 15.7187C12.4023 16.4624 11.0144 16.8191 9.61661 16.7396C8.21885 16.6601 6.88034 16.1481 5.78622 15.2747L8.02122 13.0397C8.33526 13.1237 8.6681 13.1034 8.96961 12.9818C9.27112 12.8603 9.52499 12.6441 9.69298 12.3658C9.86097 12.0874 9.93401 11.7621 9.90108 11.4387C9.86815 11.1153 9.73104 10.8113 9.5104 10.5725C9.28977 10.3338 8.99754 10.1732 8.67772 10.1149C8.3579 10.0566 8.0278 10.1038 7.73713 10.2494C7.44645 10.395 7.21093 10.631 7.06604 10.922C6.92114 11.213 6.8747 11.5432 6.93372 11.8629L6.95997 11.9792L4.72572 14.2142C3.85201 13.1199 3.33997 11.7811 3.26042 10.383C3.18088 8.98498 3.53777 7.59676 4.28172 6.41042C3.76272 5.44817 3.60072 4.73192 3.90072 4.43117C4.63347 3.69917 7.83822 5.71742 11.0602 8.93867V8.93942ZM15.8332 4.16642C15.9824 4.31555 16.0985 4.49447 16.1739 4.69151C16.2492 4.88855 16.2822 5.09927 16.2706 5.30991C16.259 5.52055 16.2031 5.72637 16.1065 5.91394C16.0099 6.1015 15.8749 6.26659 15.7102 6.39842C16.3021 7.33841 16.6532 8.40974 16.7326 9.51771C16.812 10.6257 16.6172 11.7361 16.1655 12.7509C15.2737 11.2854 13.863 9.62042 12.1207 7.87892L11.718 7.47992C10.122 5.92067 8.60097 4.65692 7.24947 3.83492C8.26435 3.38301 9.37495 3.18813 10.4831 3.26754C11.5912 3.34694 12.6626 3.69817 13.6027 4.29017C13.7345 4.12566 13.8995 3.99078 14.0869 3.8943C14.2743 3.79783 14.4799 3.74193 14.6903 3.73025C14.9008 3.71858 15.1113 3.75139 15.3083 3.82654C15.5052 3.90169 15.6841 4.0175 15.8332 4.16642Z" fill="#525866"/>
</svg>
