<svg width="20" height="20" viewBox="0 0 20 20" fill="none" xmlns="http://www.w3.org/2000/svg">
<path d="M6.875 3.125V4.375H4.375C4.02983 4.375 3.75 4.65482 3.75 5V15C3.75 15.3452 4.02983 15.625 4.375 15.625H9.22162C8.53545 14.769 8.125 13.6824 8.125 12.5C8.125 9.73856 10.3636 7.5 13.125 7.5C14.3074 7.5 15.394 7.91045 16.25 8.59664V5C16.25 4.65482 15.9702 4.375 15.625 4.375H13.125V3.125H11.875V4.375H8.125V3.125H6.875ZM16.875 12.5C16.875 14.5711 15.1961 16.25 13.125 16.25C11.0539 16.25 9.375 14.5711 9.375 12.5C9.375 10.4289 11.0539 8.75 13.125 8.75C15.1961 8.75 16.875 10.4289 16.875 12.5ZM12.5 10V12.7589L13.9331 14.1919L14.8169 13.3081L13.75 12.2411V10H12.5Z" fill="#525866"/>
</svg>
