<svg width="15" height="16" viewBox="0 0 15 16" fill="none" xmlns="http://www.w3.org/2000/svg">
<path d="M11.75 8.75001V9.50001C11.75 11.5775 11.252 13.5838 10.3137 15.3845L10.1435 15.6995L8.83325 14.969C9.70325 13.409 10.1907 11.6615 10.2447 9.84201L10.25 9.50001V8.75001H11.75ZM7.25 6.50001H8.75V9.50001L8.74625 9.78426C8.68955 11.8375 7.9829 13.8199 6.728 15.446L6.55475 15.6635L5.39225 14.7155C6.53704 13.3174 7.18847 11.5806 7.2455 9.77451L7.25 9.50001V6.50001ZM8 3.50001C8.99456 3.50001 9.94839 3.8951 10.6516 4.59836C11.3549 5.30162 11.75 6.25545 11.75 7.25001H10.25C10.25 6.65327 10.0129 6.08097 9.59099 5.65902C9.16903 5.23706 8.59674 5.00001 8 5.00001C7.40326 5.00001 6.83097 5.23706 6.40901 5.65902C5.98705 6.08097 5.75 6.65327 5.75 7.25001V9.50001C5.75 11.1763 5.135 12.758 4.04675 13.9828L3.88775 14.1553L2.80175 13.1203C3.67922 12.2022 4.19243 10.9961 4.2455 9.72726L4.25 9.50001V7.25001C4.25 6.25545 4.64509 5.30162 5.34835 4.59836C6.05161 3.8951 7.00544 3.50001 8 3.50001ZM8 0.500007C9.79021 0.500007 11.5071 1.21117 12.773 2.47704C14.0388 3.74291 14.75 5.4598 14.75 7.25001V9.50001C14.75 10.7735 14.5985 12.0275 14.3022 13.2425L14.198 13.6468L12.7505 13.2523C13.0445 12.1745 13.2102 11.0608 13.244 9.92601L13.25 9.50001V7.25001C13.25 6.27566 12.9789 5.32053 12.4669 4.49151C11.955 3.66249 11.2224 2.9923 10.3512 2.55594C9.48005 2.11957 8.50463 1.93425 7.53412 2.02071C6.56361 2.10717 5.63631 2.46201 4.856 3.04551L3.78725 1.97601C4.98235 1.01847 6.46861 0.497736 8 0.500007ZM2.726 3.03726L3.7955 4.10601C3.15225 4.96343 2.78829 5.99795 2.753 7.06926L2.75 7.25001L2.753 8.75001C2.753 9.59001 2.555 10.4023 2.1815 11.1328L2.0645 11.3503L0.761749 10.6063C1.04675 10.1075 1.21325 9.55101 1.24625 8.96901L1.253 8.75001V7.25001C1.24855 5.71876 1.76836 4.23211 2.726 3.03726Z" fill="#525866"/>
</svg>
