<svg width="12" height="16" viewBox="0 0 12 16" fill="none" xmlns="http://www.w3.org/2000/svg">
<path d="M1.49976 0.5H10.4998C10.6987 0.5 10.8894 0.579018 11.0301 0.71967C11.1707 0.860322 11.2498 1.05109 11.2498 1.25V14.75C11.2498 14.9489 11.1707 15.1397 11.0301 15.2803C10.8894 15.421 10.6987 15.5 10.4998 15.5H1.49976C1.30084 15.5 1.11008 15.421 0.969426 15.2803C0.828774 15.1397 0.749756 14.9489 0.749756 14.75V1.25C0.749756 1.05109 0.828774 0.860322 0.969426 0.71967C1.11008 0.579018 1.30084 0.5 1.49976 0.5ZM5.99976 11.75C5.80084 11.75 5.61008 11.829 5.46943 11.9697C5.32877 12.1103 5.24976 12.3011 5.24976 12.5C5.24976 12.6989 5.32877 12.8897 5.46943 13.0303C5.61008 13.171 5.80084 13.25 5.99976 13.25C6.19867 13.25 6.38943 13.171 6.53009 13.0303C6.67074 12.8897 6.74976 12.6989 6.74976 12.5C6.74976 12.3011 6.67074 12.1103 6.53009 11.9697C6.38943 11.829 6.19867 11.75 5.99976 11.75Z" fill="#525866"/>
</svg>
