<svg width="20" height="20" viewBox="0 0 20 20" fill="none" xmlns="http://www.w3.org/2000/svg">
<path d="M10.7505 2.5V3.25H16.0005V4.75H10.7505V15.25H13.7505V16.75H6.25049V15.25H9.25049V4.75H4.00049V3.25H9.25049V2.5H10.7505ZM4.75049 5.75725L6.87149 7.879C7.41449 8.42125 7.75049 9.17125 7.75049 10C7.75049 11.6575 6.40799 13 4.75049 13C3.09299 13 1.75049 11.6575 1.75049 10C1.75049 9.17125 2.08649 8.42125 2.62949 7.879L4.75049 5.75725ZM15.2505 5.75725L17.3715 7.879C17.9145 8.42125 18.2505 9.17125 18.2505 10C18.2505 11.6575 16.908 13 15.2505 13C13.593 13 12.2505 11.6575 12.2505 10C12.2505 9.17125 12.5865 8.42125 13.1295 7.879L15.2505 5.75725ZM4.75049 7.879L3.68999 8.9395C3.40949 9.22 3.25049 9.595 3.25049 10C3.25049 10.8287 3.92174 11.5 4.75049 11.5C5.57924 11.5 6.25049 10.8287 6.25049 10C6.25049 9.595 6.09149 9.22 5.81099 8.9395L4.75049 7.879ZM15.2505 7.879L14.19 8.9395C13.9095 9.22 13.7505 9.595 13.7505 10C13.7505 10.8287 14.4217 11.5 15.2505 11.5C16.0792 11.5 16.7505 10.8287 16.7505 10C16.7505 9.595 16.5915 9.22 16.311 8.9395L15.2505 7.879Z" fill="#525866"/>
</svg>
