<svg width="15" height="17" viewBox="0 0 15 17" fill="none" xmlns="http://www.w3.org/2000/svg">
<path d="M7.50024 10.689V16.5H0.000244334C1.1555e-05 15.5842 0.209435 14.6804 0.612468 13.858C1.0155 13.0357 1.60145 12.3165 2.32541 11.7555C3.04937 11.1946 3.89213 10.8068 4.78911 10.622C5.68609 10.4371 6.61349 10.46 7.50024 10.689ZM6.00024 9.75C3.51399 9.75 1.50024 7.73625 1.50024 5.25C1.50024 2.76375 3.51399 0.75 6.00024 0.75C8.48649 0.75 10.5002 2.76375 10.5002 5.25C10.5002 7.73625 8.48649 9.75 6.00024 9.75ZM10.5002 12.75V10.5H12.0002V12.75H14.2502V14.25H12.0002V16.5H10.5002V14.25H8.25024V12.75H10.5002Z" fill="#525866"/>
</svg>
